<?xml version="1.0" standalone="no"?>
<!DOCTYPE svg PUBLIC "-//W3C//DTD SVG 20010904//EN"
 "http://www.w3.org/TR/2001/REC-SVG-20010904/DTD/svg10.dtd">
<svg version="1.0" xmlns="http://www.w3.org/2000/svg"
 width="1024.000000pt" height="1024.000000pt" viewBox="0 0 1024.000000 1024.000000"
 preserveAspectRatio="xMidYMid meet">
<metadata>
Created by potrace 1.11, written by Peter Selinger 2001-2013
</metadata>
<g transform="translate(0.000000,1024.000000) scale(0.100000,-0.100000)"
fill="#000000" stroke="none">
<path d="M0 5120 l0 -5120 5120 0 5120 0 0 5120 0 5120 -5120 0 -5120 0 0
-5120z m6104 3291 c240 -71 448 -136 462 -146 32 -21 58 -80 51 -120 -6 -32
-1794 -6218 -1828 -6321 -12 -38 -32 -73 -53 -93 -61 -59 -74 -57 -502 69
-516 152 -527 156 -553 184 -52 55 -101 -127 883 3276 504 1741 925 3183 936
3205 26 52 63 74 121 75 31 0 194 -44 483 -129z m-3099 -1337 c35 -16 635
-652 672 -713 27 -42 29 -80 8 -121 -18 -35 -74 -85 -733 -664 l-523 -460 58
-51 c32 -29 310 -273 618 -544 308 -271 568 -506 578 -524 21 -39 22 -79 2
-117 -8 -16 -155 -179 -326 -362 -302 -325 -361 -378 -414 -378 -12 0 -40 10
-63 23 -44 24 -1946 1801 -2000 1868 -37 47 -43 102 -14 151 22 38 1973 1867
2015 1890 40 22 80 22 122 2z m4392 -11 c66 -45 1955 -1819 1991 -1869 38 -55
41 -97 9 -145 -25 -37 -1889 -1794 -1974 -1860 -61 -48 -106 -58 -156 -34 -22
10 -151 140 -349 352 -172 184 -321 347 -330 362 -23 34 -23 98 1 136 10 17
295 273 634 570 l615 540 -52 46 c-28 25 -301 265 -606 533 -305 268 -567 503
-582 523 -31 40 -37 100 -15 140 20 36 639 694 671 714 45 27 95 24 143 -8z"/>
</g>
</svg>
